<?xml version="1.0" encoding="utf-8"?>
<!-- Generator: Adobe Illustrator 25.3.1, SVG Export Plug-In . SVG Version: 6.00 Build 0)  -->
<svg version="1.1" id="Layer_1" xmlns="http://www.w3.org/2000/svg" xmlns:xlink="http://www.w3.org/1999/xlink" x="0px" y="0px"
	 viewBox="0 0 500 500" style="enable-background:new 0 0 500 500;" xml:space="preserve">
<style type="text/css">
	.st0{fill:none;}
	.st1{fill:#231F20;}
	.st2{fill:#EC1E24;}
	.st3{fill:#CCCCCC;}
	.st4{enable-background:new    ;}
	.st5{fill:#808080;}
</style>
<g>
	<path class="st0" d="M226.9,60.7c-86.2,0-156.1,69.9-156.1,156.1s69.9,156.1,156.1,156.1c21.3,0,41.5-4.3,60-12v-52.8
		c0-9.8,7.9-17.7,17.7-17.7h59.9c11.8-22,18.5-47,18.5-73.7C383,130.6,313.1,60.7,226.9,60.7z M292.8,277.4
		c-33.5,0-60.6-27.1-60.6-60.6s27.1-60.6,60.6-60.6s60.6,27.1,60.6,60.6S326.3,277.4,292.8,277.4z"/>
	<path class="st1" d="M226.9,373c-86.2,0-156.1-69.9-156.1-156.1S140.7,60.8,226.9,60.8S383,130.7,383,216.9
		c0,26.7-6.7,51.7-18.5,73.7h25.7c10.2-22.5,15.8-47.4,15.8-73.7c0-98.9-80.2-179.1-179.1-179.1S47.8,118,47.8,216.9
		S128,396,226.9,396c21,0,41.2-3.6,60-10.3V361C268.4,368.7,248.1,373,226.9,373z"/>
	<circle class="st2" cx="292.8" cy="216.9" r="60.6"/>
</g>
<path class="st3" d="M435.9,455H303.1c-8.9,0-16.1-7.2-16.1-16.1V306.1c0-8.9,7.2-16.1,16.1-16.1h132.7c8.9,0,16.1,7.2,16.1,16.1
	v132.7C452,447.8,444.8,455,435.9,455z"/>
<g class="st4">
	<path class="st5" d="M314.6,336.1c0-1.2,0.9-2.2,2.2-2.2h47.7c1.3,0,2.2,1.1,2.2,2.2v9.6c0,1.2-0.9,2.2-2.2,2.2h-34.7v19.2h29
		c1.2,0,2.2,1.1,2.2,2.2v9.7c0,1.3-1.1,2.2-2.2,2.2h-29v20.5h34.7c1.3,0,2.2,1.1,2.2,2.2v9.6c0,1.2-0.9,2.2-2.2,2.2h-47.7
		c-1.3,0-2.2-1.1-2.2-2.2V336.1z"/>
	<path class="st5" d="M375.8,411.6l34.9-63.1V348h-29.3c-1.2,0-2.2-1.1-2.2-2.2v-9.7c0-1.2,1.1-2.2,2.2-2.2h49
		c1.2,0,2.2,1.1,2.2,2.2v1.5l-34.5,63.9v0.2h29.9c1.3,0,2.2,1.1,2.2,2.2v9.7c0,1.2-0.9,2.2-2.2,2.2h-50.1c-1.2,0-2.2-1.1-2.2-2.2
		V411.6z"/>
</g>
</svg>
